#!OML:ASF F:\VICON\USERDATA\INSTALL\rory3\rory3.ASF
:FULLY-SPECIFIED
:DEGREES
581
root -0.947372 17.1687 -2.09269 3.11552 53.9191 -9.95437
lowerback 7.04814 12.293 5.83667
upperback 0.611732 16.7965 -6.43705
thorax 0.42524 8.59129 -10.5491
lowerneck -1.52694 -21.2169 -16.8668
upperneck 7.63025 -29.9661 18.083
head 7.8677 -14.4625 4.75717
rclavicle -1.36764e-013 9.54166e-014
rhumerus 72.4943 36.8906 -43.9576
rradius 46.7945
rwrist 32.0191
rhand -26.0284 8.70727
rfingers 7.12502
rthumb 0.518283 -21.2718
lclavicle -1.36764e-013 9.54166e-014
lhumerus -68.1087 42.5892 -15.4984
lradius 43.1248
lwrist 11.6443
lhand -27.728 34.4694
lfingers 7.12502
lthumb -1.12324 64.4462
rfemur -20.4868 -30.2559 33.8502
rtibia 40.1406
rfoot -32.6261 -9.92814
rtoes -0.110581
lfemur -37.8592 -18.0507 -6.41145
ltibia 46.6501
lfoot -19.7746 -23.2368
ltoes -6.86519
582
root -0.947467 17.1733 -2.10189 3.0409 53.7098 -10.0105
lowerback 7.08949 12.2161 5.8921
upperback 0.619966 16.6951 -6.30591
thorax 0.363181 8.53204 -10.4561
lowerneck -1.67688 -21.1473 -16.8842
upperneck 7.61155 -29.8284 17.9719
head 7.84533 -14.3938 4.74258
rclavicle 3.18055e-015 -4.92986e-014
rhumerus 72.2535 36.9207 -44.2387
rradius 46.4796
rwrist 31.9683
rhand -25.9323 8.61968
rfingers 7.12502
rthumb 0.611151 -21.3592
lclavicle 3.18055e-015 -4.92986e-014
lhumerus -67.7469 42.4081 -15.1481
lradius 43.4407
lwrist 11.8921
lhand -28.5249 34.7548
lfingers 7.12502
lthumb -1.89285 64.7262
rfemur -20.4313 -30.1394 33.8379
rtibia 40.0857
rfoot -32.537 -9.87462
rtoes -0.107694
lfemur -37.7521 -17.935 -6.40678
ltibia 46.6004
lfoot -19.6246 -23.1555
ltoes -6.50162
583
root -0.944531 17.1772 -2.11295 3.03037 53.4156 -10.0055
lowerback 7.08158 12.1577 5.96418
upperback 0.599491 16.6194 -6.21384
thorax 0.320258 8.48738 -10.4016
lowerneck -1.96633 -21.0552 -16.994
upperneck 7.77046 -29.6568 17.8079
head 7.90293 -14.2975 4.70738
rclavicle -4.92986e-014 -1.51076e-014
rhumerus 71.8883 36.8483 -44.3889
rradius 46.364
rwrist 31.85
rhand -25.5269 7.97042
rfingers 7.12502
rthumb 1.00269 -22.007
lclavicle -4.92986e-014 -1.51076e-014
lhumerus -67.3698 42.1958 -14.8448
lradius 43.7953
lwrist 11.9877
lhand -28.3694 34.1872
lfingers 7.12502
lthumb -1.74265 64.1598
rfemur -20.3827 -29.9909 33.7667
rtibia 40.044
rfoot -32.4338 -9.77423
rtoes 0.0848703
lfemur -37.579 -17.8114 -6.44726
ltibia 46.5436
lfoot -19.486 -22.983
ltoes -5.45814
584
root -0.937706 17.1786 -2.12666 3.2058 53.0551 -9.84469
lowerback 7.02331 12.1906 6.05828
upperback 0.548476 16.6688 -6.23173
thorax 0.34083 8.51289 -10.4558
lowerneck -2.13439 -21.1247 -16.6618
upperneck 7.77285 -29.6767 17.3815
head 7.80873 -14.3099 4.5388
rclavicle -1.80099e-013 1.51076e-014
rhumerus 71.2806 36.4149 -44.4899
rradius 46.2638
rwrist 31.7396
rhand -24.7677 7.67535
rfingers 7.12502
rthumb 1.73592 -22.2973
lclavicle -1.80099e-013 1.51076e-014
lhumerus -66.5629 42.2291 -14.4567
lradius 43.8892
lwrist 11.6353
lhand -28.0135 33.705
lfingers 7.12502
lthumb -1.39896 63.6801
rfemur -20.4015 -29.8458 33.6039
rtibia 40.0239
rfoot -32.2675 -9.59282
rtoes 0.501929
lfemur -37.4389 -17.6927 -6.56976
ltibia 46.4807
lfoot -18.9263 -22.8527
ltoes -3.2157
585
root -0.932459 17.1835 -2.13883 3.13907 52.6692 -9.86249
lowerback 7.10787 12.2209 6.29201
upperback 0.507749 16.7308 -6.22841
thorax 0.331085 8.54458 -10.5902
lowerneck -2.21128 -21.2879 -15.8601
upperneck 7.58514 -29.7872 16.681
head 7.53451 -14.3833 4.25676
rclavicle 5.08889e-014 -7.95139e-016
rhumerus 70.6131 35.9662 -44.8054
rradius 46.02
rwrist 31.812
rhand -24.4954 7.59806
rfingers 7.12502
rthumb 1.99887 -22.3723
lclavicle 5.08889e-014 -7.95139e-016
lhumerus -65.5102 42.2823 -13.9553
lradius 43.8418
lwrist 11.2829
lhand -28.0228 33.6572
lfingers 7.12502
lthumb -1.40798 63.6323
rfemur -20.2994 -29.5872 33.4978
rtibia 40.0496
rfoot -32.1777 -9.40081
rtoes 1.00847
lfemur -37.2006 -17.5062 -6.6286
ltibia 46.3652
lfoot -18.5828 -22.7519
ltoes -2.3878
586
root -0.92682 17.1858 -2.14817 3.01716 52.2721 -9.85651
lowerback 7.14311 12.206 6.41389
upperback 0.522868 16.7211 -6.15336
thorax 0.336766 8.53879 -10.5795
lowerneck -2.28608 -21.3041 -15.3353
upperneck 7.30847 -29.7314 16.3415
head 7.31122 -14.3692 4.1374
rclavicle 7.95139e-015 -1.90833e-014
rhumerus 70.0839 35.6595 -45.0159
rradius 45.842
rwrist 31.7983
rhand -24.5436 7.60451
rfingers 7.12502
rthumb 1.95236 -22.3663
lclavicle 7.95139e-015 -1.90833e-014
lhumerus -64.6498 42.2167 -13.4852
lradius 43.9003
lwrist 10.9946
lhand -28.0804 33.3151
lfingers 7.12502
lthumb -1.46352 63.2898
rfemur -20.137 -29.2724 33.3381
rtibia 40.1444
rfoot -32.1478 -9.37971
rtoes 0.968511
lfemur -36.8096 -17.3531 -6.71222
ltibia 46.159
lfoot -18.4993 -22.5414
ltoes -1.84619
587
root -0.921822 17.1919 -2.15493 3.64999 51.7521 -8.91878
lowerback 7.09606 12.2051 5.89257
upperback 0.55536 16.6776 -6.24636
thorax 0.268434 8.51345 -10.4077
lowerneck -2.264 -21.1156 -15.5452
upperneck 7.07986 -29.5217 16.9048
head 7.33052 -14.2552 4.35994
rclavicle 5.08889e-014 -6.12257e-014
rhumerus 69.5864 35.3076 -45.1138
rradius 45.7303
rwrist 31.7941
rhand -24.7372 7.71728
rfingers 7.12502
rthumb 1.76538 -22.2552
lclavicle 5.08889e-014 -6.12257e-014
lhumerus -63.9921 42.2278 -13.2804
lradius 44.0444
lwrist 10.6292
lhand -28.1541 32.7402
lfingers 7.12502
lthumb -1.53478 62.7144
rfemur -19.9956 -28.904 32.5565
rtibia 40.2292
rfoot -32.0507 -9.27287
rtoes 1.2789
lfemur -36.3353 -17.2283 -7.42696
ltibia 45.9045
lfoot -18.4727 -22.2124
ltoes -1.28003
